<svg width="791" height="513" viewBox="0 0 791 513" fill="none" xmlns="http://www.w3.org/2000/svg">
<mask id="mask0_1_678" style="mask-type:alpha" maskUnits="userSpaceOnUse" x="0" y="0" width="791" height="513">
<path fill-rule="evenodd" clip-rule="evenodd" d="M0 254.788C0 236.966 14.4473 222.519 32.2689 222.519H118.319C136.141 222.519 150.588 236.966 150.588 254.788C150.588 272.609 136.141 287.057 118.319 287.057H32.2689C14.4473 287.057 0 272.609 0 254.788Z" fill="white"/>
<path fill-rule="evenodd" clip-rule="evenodd" d="M140.908 185.968C131.997 201.402 112.261 206.69 96.8274 197.779L22.3056 154.754C6.87159 145.843 1.58352 126.108 10.4943 110.674C19.4051 95.2401 39.1405 89.952 54.5745 98.8628L129.096 141.888C144.53 150.799 149.818 170.534 140.908 185.968Z" fill="white"/>
<path fill-rule="evenodd" clip-rule="evenodd" d="M10.5412 398.902C19.452 414.335 39.1873 419.624 54.6213 410.713L129.143 367.688C144.577 358.777 149.865 339.041 140.954 323.607C132.044 308.173 112.308 302.885 96.8742 311.796L22.3524 354.821C6.91843 363.732 1.63036 383.468 10.5412 398.902Z" fill="white"/>
<path fill-rule="evenodd" clip-rule="evenodd" d="M790.897 254.788C790.897 236.966 776.45 222.519 758.628 222.519H672.578C654.756 222.519 640.309 236.966 640.309 254.788C640.309 272.609 654.756 287.057 672.578 287.057H758.628C776.45 287.057 790.897 272.609 790.897 254.788Z" fill="white"/>
<path fill-rule="evenodd" clip-rule="evenodd" d="M650.85 185.968C659.761 201.402 679.496 206.69 694.93 197.779L769.452 154.754C784.886 145.843 790.174 126.108 781.263 110.674C772.352 95.2401 752.617 89.952 737.183 98.8628L662.661 141.888C647.227 150.799 641.939 170.534 650.85 185.968Z" fill="white"/>
<path fill-rule="evenodd" clip-rule="evenodd" d="M781.216 398.902C772.305 414.335 752.57 419.624 737.136 410.713L662.614 367.688C647.18 358.777 641.892 339.041 650.803 323.607C659.714 308.173 679.449 302.885 694.883 311.796L769.405 354.821C784.839 363.732 790.127 383.468 781.216 398.902Z" fill="white"/>
<path fill-rule="evenodd" clip-rule="evenodd" d="M286.745 509.846C309.697 514.412 333.487 512.069 355.107 503.113C370.596 496.698 384.473 487.094 395.879 475.009C407.284 487.094 421.161 496.698 436.65 503.113C458.27 512.069 482.06 514.412 505.012 509.846C527.964 505.281 549.046 494.012 565.593 477.465C578.195 464.863 578.195 444.432 565.593 431.83C552.992 419.228 532.56 419.228 519.958 431.83C512.437 439.351 502.854 444.474 492.421 446.549C481.989 448.624 471.175 447.559 461.348 443.488C451.521 439.418 443.121 432.524 437.211 423.68C431.302 414.836 428.148 404.438 428.148 393.801C428.148 383.164 431.302 372.766 437.211 363.921C443.121 355.077 451.521 348.184 461.348 344.113C471.175 340.042 481.989 338.977 492.421 341.053C502.854 343.128 512.437 348.25 519.958 355.771C532.56 368.373 552.992 368.373 565.593 355.771C576.754 344.61 578.03 327.308 569.422 314.742C601.176 291.228 621.761 253.49 621.761 210.943C621.761 139.657 563.972 81.8679 492.685 81.8679C469.352 81.8679 447.466 88.059 428.578 98.8881V64.6578H503.442C521.263 64.6578 535.711 50.2105 535.711 32.3889C535.711 14.5673 521.263 0.119995 503.442 0.119995H288.316C270.494 0.119995 256.047 14.5673 256.047 32.3889C256.047 50.2105 270.494 64.6578 288.316 64.6578H364.04V99.3859C344.958 88.2489 322.76 81.8679 299.072 81.8679C227.785 81.8679 169.996 139.657 169.996 210.943C169.996 253.49 190.582 291.228 222.336 314.742C213.727 327.308 215.003 344.61 226.164 355.771C238.766 368.373 259.197 368.373 271.799 355.771C279.321 348.25 288.903 343.128 299.336 341.053C309.769 338.977 320.582 340.042 330.41 344.113C340.237 348.184 348.636 355.077 354.546 363.921C360.456 372.766 363.61 383.164 363.61 393.801C363.61 404.438 360.456 414.836 354.546 423.68C348.636 432.524 340.237 439.418 330.41 443.488C320.582 447.559 309.769 448.624 299.336 446.549C288.903 444.474 279.32 439.351 271.799 431.83C259.197 419.228 238.766 419.228 226.164 431.83C213.562 444.432 213.562 464.863 226.164 477.465C242.711 494.012 263.794 505.281 286.745 509.846ZM492.685 146.406C457.042 146.406 428.148 175.3 428.148 210.943C428.148 246.587 457.042 275.481 492.685 275.481C528.329 275.481 557.223 246.587 557.223 210.943C557.223 175.3 528.329 146.406 492.685 146.406ZM299.072 146.406C263.429 146.406 234.534 175.3 234.534 210.943C234.534 246.587 263.429 275.481 299.072 275.481C334.715 275.481 363.61 246.587 363.61 210.943C363.61 175.3 334.715 146.406 299.072 146.406Z" fill="white"/>
</mask>
<g mask="url(#mask0_1_678)">
<rect x="-105" y="0.119995" width="1000" height="102.4" fill="#FF7A00"/>
<rect x="-105" y="102.52" width="1000" height="102.4" fill="#F75D2E"/>
<rect x="-105" y="409.72" width="1000" height="102.4" fill="#E4189B"/>
<rect x="-105" y="307.32" width="1000" height="102.4" fill="#EB3075"/>
<rect x="-105" y="204.92" width="1000" height="102.4" fill="#F04455"/>
</g>
</svg>
